Coordinates
version=1
nRows=12
nColumns=28
inDegrees=yes

Units are S.I. units (second, meters, Newtons, ...)
Angles are in degrees.

endheader
time	pelvis_tilt	pelvis_list	pelvis_rotation	pelvis_tx	pelvis_ty	pelvis_tz	hip_flexion_r	hip_adduction_r	hip_rotation_r	knee_angle_r	ankle_angle_r	subtalar_angle_r	mtp_angle_r	hip_flexion_l	hip_adduction_l	hip_rotation_l	knee_angle_l	socket_flexion	socket_adduction	socket_rotation	socket_tx	socket_ty	socket_tz	foot_flex	lumbar_extension	lumbar_bending	lumbar_rotation
      0.62500000	      1.97872231	     -4.14299734	      4.09388098	      0.05310477	      0.98741701	      0.30356394	     24.72631243	      6.60017161	    -13.34429039	     -9.55706973	     14.30896400	     -7.83953831	      6.96085895	    -22.94287013	     -2.62858527	     17.42492287	     -6.42302190	      0.00000000	      0.00000000	      0.00000000	      0.00000000	     -0.01111615	      0.00000000	      7.41504707	    -15.26999266	      4.23381838	      1.17270187
      0.62916667	      1.95244701	     -4.04928581	      4.04683203	      0.05322089	      0.98741512	      0.30369867	     24.78718535	      6.50995567	    -13.40834975	     -9.65047005	     14.22241020	     -7.95197786	      6.98296730	    -22.93332390	     -2.51877703	     17.32961806	     -6.40328707	      0.00000000	      0.00000000	      0.00000000	      0.00000000	     -0.01088294	      0.00000000	      7.45414970	    -15.21701170	      4.08204600	      1.13335410
      0.63333333	      1.97976101	     -4.12007735	      4.17393569	      0.05922273	      0.98657014	      0.30312131	     24.81848260	      6.57512867	    -13.19608107	    -10.18098774	     13.93549154	     -8.11610678	      7.02938583	    -23.15764837	     -2.57680743	     17.41527560	     -6.70489993	      0.00000000	      0.00000000	      0.00000000	      0.00000000	     -0.01079827	      0.00000000	      7.39118352	    -15.22828964	      4.33982273	      1.12011025
      0.63750000	      2.15988383	     -4.25448445	      4.11908343	      0.06529805	      0.98591640	      0.30303708	     24.49485125	      6.91005857	    -12.34344104	    -10.18556181	     10.93991247	    -11.30118861	     13.45358355	    -23.60677204	     -2.66559175	     17.18101444	     -6.92452047	      0.00000000	      0.00000000	      0.00000000	      0.00000000	     -0.01065041	      0.00000000	      7.35521542	    -15.40630903	      4.60136317	      1.08651882
      0.64166667	      2.19846514	     -4.32450116	      4.15259313	      0.07142603	      0.98513081	      0.30264890	     24.60960601	      6.96980741	    -12.33090090	    -10.94046650	     10.52429100	    -11.46862815	     13.40959943	    -23.85077400	     -2.69027135	     17.12411601	     -7.23779612	      0.00000000	      0.00000000	      0.00000000	      0.00000000	     -0.01047171	      0.00000000	      7.29671168	    -15.41490980	      4.83445908	      1.07334360
      0.64583333	      2.24290929	     -4.41075708	      4.17813436	      0.07751842	      0.98438268	      0.30224770	     24.72233898	      7.04506377	    -12.29314653	    -11.70766054	     10.06093595	    -11.67979757	     13.38531681	    -24.08392865	     -2.72583678	     17.05512108	     -7.56938078	      0.00000000	      0.00000000	      0.00000000	      0.00000000	     -0.01032235	      0.00000000	      7.22075267	    -15.43048644	      5.07303383	      1.06188162
      0.65000000	      2.27418722	     -4.49305088	      4.25253637	      0.08360680	      0.98374544	      0.30178614	     24.77826735	      7.11290610	    -12.15749125	    -12.34700581	      9.73402998	    -11.78475822	     13.37374313	    -24.25196106	     -2.76536457	     17.04573941	     -7.98701292	      0.00000000	      0.00000000	      0.00000000	      0.00000000	     -0.01016270	      0.00000000	      7.10007579	    -15.43663949	      5.33576781	      1.07182870
      0.65416667	      2.30664895	     -4.67428181	      4.01983155	      0.08970602	      0.98303890	      0.30190031	     24.76393924	      7.49333027	    -11.35815515	    -12.77485839	      8.03526969	    -14.03929994	     14.54645134	    -24.49598778	     -2.80233014	     16.64482177	     -8.31935458	      0.00000000	      0.00000000	      0.00000000	      0.00000000	     -0.01005441	      0.00000000	      6.97781836	    -15.45188020	      5.59641315	      1.30286687
      0.65833333	      2.34956785	     -4.77570637	      4.06228536	      0.09572812	      0.98249940	      0.30143390	     24.84151022	      7.57254103	    -11.25610425	    -13.48581211	      7.73692350	    -14.07123398	     14.53906334	    -24.63584255	     -2.83435196	     16.61473049	     -8.80094787	      0.00000000	      0.00000000	      0.00000000	      0.00000000	     -0.00993060	      0.00000000	      6.81397332	    -15.49257175	      5.87900929	      1.31274952
      0.66250000	      2.42226210	     -4.89830152	      3.93839128	      0.10205726	      0.98195779	      0.30121591	     24.99518911	      7.67450708	    -11.41161094	    -14.46013257	      7.15020250	    -14.28979542	     14.53729230	    -24.88346164	     -2.83285533	     16.33110433	     -9.19597067	      0.00000000	      0.00000000	      0.00000000	      0.00000000	     -0.00967847	      0.00000000	      6.65374551	    -15.50852718	      6.14093528	      1.33028760
      0.66666667	      2.49487057	     -5.11293210	      3.72444656	      0.10827127	      0.98151411	      0.30128410	     24.94784243	      8.03769630	    -10.84393549	    -14.96760665	      5.90915101	    -15.71506283	     15.82626015	    -25.10238539	     -2.89374474	     15.93384557	     -9.65653012	      0.00000000	      0.00000000	      0.00000000	      0.00000000	     -0.00955855	      0.00000000	      6.44379698	    -15.56223835	      6.44292039	      1.72070258
      0.67083333	      2.55237692	     -5.22184623	      3.74639176	      0.11440776	      0.98124849	      0.30086928	     24.97499620	      8.11704223	    -10.74880039	    -15.65737694	      5.64510401	    -15.71827722	     15.82292326	    -25.18532860	     -2.91596381	     15.87558930	    -10.26089945	      0.00000000	      0.00000000	      0.00000000	      0.00000000	     -0.00927452	      0.00000000	      6.20274885	    -15.59926207	      6.71937514	      1.73044208
